<svg width="418" height="395" viewBox="0 0 418 395" fill="none" xmlns="http://www.w3.org/2000/svg">
<path d="M411.922 148.56C413.048 183.999 412.538 220.581 412.638 256.104L412.788 289.521C412.838 300.265 413.414 311.669 411.061 322.201C401.689 364.242 361.571 393.751 319.185 394.537C292.991 395.017 266.631 394.502 240.422 394.757C220.39 394.747 197.533 395.613 177.776 394.136C134.242 390.883 93.4753 370.989 61.9429 340.98C23.65 304.772 1.38124 254.795 0.0695189 202.121C-1.57965 140.934 26.2019 79.9424 73.9426 41.5116C106.129 15.651 145.946 1.1174 187.229 0.160472C206.23 -0.190869 226.273 0.14447 245.338 0.142968L358.802 0.135958C377.882 0.13796 399.155 0.635432 418 0.0503646C414.345 7.58117 400.116 25.393 394.274 33.4237C388.757 41.0692 383.199 48.6826 377.602 56.2639C375.714 58.7889 371.764 64.3397 369.807 66.185L369.151 66.2391C357.901 67.1089 336.293 66.3101 324.262 66.2961L234.774 66.4568C210.67 66.5709 187.224 64.7306 163.406 69.5248C134.953 75.2513 111.879 89.0167 92.6202 110.57C68.3057 137.78 58.9935 174.059 60.6281 209.873C62.5366 241.858 79.2396 276.705 103.651 297.863C147.224 335.629 190.434 330.97 243.596 330.975L282.206 330.98C290.838 331 299.569 331.18 308.161 330.7C320.196 330.029 331.456 325.785 341.134 318.662C343.777 316.714 346.741 315.083 348.784 312.427C348.173 307.559 348.378 300.466 348.388 295.424L348.414 269.06C348.414 237.644 348.709 205.645 348.238 174.27C335.256 173.946 321.443 174.2 308.396 174.24C315.791 162.386 325.593 150.009 333.809 138.416C337.159 133.697 346.736 119.92 349.976 116.814C368.585 117.636 393.593 116.945 412.538 116.916C412.953 124.637 412.473 140.834 411.922 148.56Z" fill="#ABFF33"/>
<g filter="url(#filter0_i_46_19)">
<path d="M350.15 117.199C368.759 118.022 393.767 117.33 412.712 117.302C413.128 125.022 412.647 141.22 412.096 148.946L411.951 149.717C410.77 156.064 410.144 164.72 409.458 171.29C408.567 179.936 407.355 188.545 405.823 197.101C399.104 235.351 384.25 271.322 359.683 301.37C356.639 305.098 352.513 309.69 348.958 312.813C348.348 307.944 348.553 300.851 348.563 295.809L348.588 269.445C348.588 238.03 348.883 206.03 348.413 174.656C335.431 174.331 321.617 174.586 308.57 174.626C315.965 162.771 325.768 150.394 333.984 138.802C337.333 134.082 346.911 120.305 350.15 117.199Z" fill="#FCFCFC"/>
</g>
<g filter="url(#filter1_i_46_19)">
<path d="M236.046 117.202C254.507 117.311 273.603 116.857 291.994 117.342C292.72 128.997 292.179 145.364 292.174 157.457L292.109 235.044L292.169 297.926C292.189 307.429 292.735 322.095 292.009 331.123C288.228 331.479 281.166 331.241 277.139 331.227L251.851 331.222C247.89 331.282 243.923 331.315 239.962 331.321C239.227 323.355 239.467 312.688 239.472 304.549L239.507 264.095L239.512 204.675C239.507 196.739 239.127 186.614 239.352 178.983C224.452 178.728 209.171 178.902 194.256 178.922C199.018 171.284 232.224 119.636 236.046 117.202Z" fill="#FCFCFC"/>
</g>
<defs>
<filter id="filter0_i_46_19" x="308.57" y="117.199" width="104.299" height="199.613" filterUnits="userSpaceOnUse" color-interpolation-filters="sRGB">
<feFlood flood-opacity="0" result="BackgroundImageFix"/>
<feBlend mode="normal" in="SourceGraphic" in2="BackgroundImageFix" result="shape"/>
<feColorMatrix in="SourceAlpha" type="matrix" values="0 0 0 0 0 0 0 0 0 0 0 0 0 0 0 0 0 0 127 0" result="hardAlpha"/>
<feOffset dy="4"/>
<feGaussianBlur stdDeviation="2"/>
<feComposite in2="hardAlpha" operator="arithmetic" k2="-1" k3="1"/>
<feColorMatrix type="matrix" values="0 0 0 0 0 0 0 0 0 0 0 0 0 0 0 0 0 0 0.25 0"/>
<feBlend mode="normal" in2="shape" result="effect1_innerShadow_46_19"/>
</filter>
<filter id="filter1_i_46_19" x="194.256" y="117.113" width="98.1289" height="218.208" filterUnits="userSpaceOnUse" color-interpolation-filters="sRGB">
<feFlood flood-opacity="0" result="BackgroundImageFix"/>
<feBlend mode="normal" in="SourceGraphic" in2="BackgroundImageFix" result="shape"/>
<feColorMatrix in="SourceAlpha" type="matrix" values="0 0 0 0 0 0 0 0 0 0 0 0 0 0 0 0 0 0 127 0" result="hardAlpha"/>
<feOffset dy="4"/>
<feGaussianBlur stdDeviation="2"/>
<feComposite in2="hardAlpha" operator="arithmetic" k2="-1" k3="1"/>
<feColorMatrix type="matrix" values="0 0 0 0 0 0 0 0 0 0 0 0 0 0 0 0 0 0 0.25 0"/>
<feBlend mode="normal" in2="shape" result="effect1_innerShadow_46_19"/>
</filter>
</defs>
</svg>
